<svg width="72" height="84" viewBox="0 0 72 84" fill="#1bc2ca" xmlns="http://www.w3.org/2000/svg">
<path d="M43.656 50.32C43.0146 50.4764 42.369 50.6151 41.72 50.736C38.1976 51.399 34.5813 51.3854 31.064 50.696C30.448 50.576 29.576 50.364 28.452 50.064L24.768 54.852C15.676 54.56 12.22 48.468 12.22 48.468C12.22 34.944 18.144 23.98 18.144 23.98C24.068 19.448 29.704 19.572 29.704 19.572L31.316 21.672C31.4646 21.6512 31.6141 21.6378 31.764 21.632C34.8368 21.2247 37.9508 21.2381 41.02 21.672L42.788 19.572C42.788 19.572 48.428 19.448 54.348 23.984C54.348 23.984 60.276 34.944 60.276 48.468C60.276 48.468 56.776 54.556 47.684 54.852L43.656 50.316V50.32ZM28.304 36C25.9 36 24 37.8 24 40C24 42.2 25.94 44 28.304 44C30.704 44 32.604 42.2 32.604 40C32.644 37.8 30.708 36 28.304 36ZM43.696 36C41.296 36 39.396 37.8 39.396 40C39.396 42.2 41.336 44 43.696 44C46.1 44 48 42.2 48 40C48 37.8 46.1 36 43.696 36ZM72 84L52.04 64H64V8H8V64H52.012L54.292 72H8C5.87827 72 3.84344 71.1571 2.34315 69.6569C0.842854 68.1566 0 66.1217 0 64V8C0 5.87827 0.842854 3.84344 2.34315 2.34315C3.84344 0.842854 5.87827 0 8 0H64C66.1217 0 68.1566 0.842854 69.6569 2.34315C71.1571 3.84344 72 5.87827 72 8V84Z" />
</svg>
