<svg width="384" height="96" viewBox="0 0 384 96" fill="none" xmlns="http://www.w3.org/2000/svg">
<path d="M55.656 58.32C55.0146 58.4764 54.369 58.6151 53.72 58.736C50.1976 59.399 46.5813 59.3854 43.064 58.696C42.448 58.576 41.576 58.364 40.452 58.064L36.768 62.852C27.676 62.56 24.22 56.468 24.22 56.468C24.22 42.944 30.144 31.98 30.144 31.98C36.068 27.448 41.704 27.572 41.704 27.572L43.316 29.672C43.4646 29.6512 43.6141 29.6378 43.764 29.632C46.8368 29.2247 49.9508 29.2381 53.02 29.672L54.788 27.572C54.788 27.572 60.428 27.448 66.348 31.984C66.348 31.984 72.276 42.944 72.276 56.468C72.276 56.468 68.776 62.556 59.684 62.852L55.656 58.316V58.32ZM40.304 44C37.9 44 36 45.8 36 48C36 50.2 37.94 52 40.304 52C42.704 52 44.604 50.2 44.604 48C44.644 45.8 42.708 44 40.304 44ZM55.696 44C53.296 44 51.396 45.8 51.396 48C51.396 50.2 53.336 52 55.696 52C58.1 52 60 50.2 60 48C60 45.8 58.1 44 55.696 44ZM84 92L64.04 72H76V16H20V72H64.012L66.292 80H20C17.8783 80 15.8434 79.1571 14.3431 77.6569C12.8429 76.1566 12 74.1217 12 72V16C12 13.8783 12.8429 11.8434 14.3431 10.3431C15.8434 8.84285 17.8783 8 20 8H76C78.1217 8 80.1566 8.84285 81.6569 10.3431C83.1571 11.8434 84 13.8783 84 16V92Z" fill="black"/>
<path d="M240 8C217.902 8 200 25.9045 200 48C200 70.0955 217.905 88 240 88C262.098 88 280 70.0955 280 48C280 25.9045 262.095 8 240 8ZM259.646 35.4039L253.081 66.3406C252.596 68.5342 251.29 69.0658 249.468 68.0335L239.468 60.6632L234.645 65.3084C234.114 65.84 233.662 66.2916 232.63 66.2916L233.339 56.1135L251.871 39.3703C252.679 38.6606 251.693 38.2581 250.627 38.9677L227.724 53.3858L217.853 50.3045C215.708 49.6284 215.659 48.16 218.305 47.1277L256.87 32.2555C258.661 31.6103 260.225 32.6916 259.644 35.4013L259.646 35.4039Z" fill="black"/>
<path d="M182.213 16.0001C181.85 15.9627 181.483 15.9627 181.12 16.0001H106.453C105.974 16.0075 105.499 16.0793 105.04 16.2135L143.573 54.5868L182.213 16.0001Z" fill="black"/>
<path d="M186.16 19.7065L147.333 58.3732C146.334 59.3665 144.982 59.9241 143.573 59.9241C142.164 59.9241 140.812 59.3665 139.813 58.3732L101.333 19.9999C101.215 20.4347 101.152 20.8827 101.146 21.3332V74.6665C101.146 76.081 101.708 77.4376 102.709 78.4378C103.709 79.438 105.065 79.9999 106.48 79.9999H181.146C182.561 79.9999 183.918 79.438 184.918 78.4378C185.918 77.4376 186.48 76.081 186.48 74.6665V21.3332C186.459 20.7776 186.351 20.2288 186.16 19.7065V19.7065ZM110.133 74.6665H106.426V70.8532L125.813 51.6265L129.573 55.3865L110.133 74.6665ZM181.093 74.6665H177.36L157.92 55.3865L161.68 51.6265L181.066 70.8532L181.093 74.6665Z" fill="black"/>
</svg>
